<svg id="Layer_1" data-name="Layer 1" xmlns="http://www.w3.org/2000/svg" viewBox="0 0 621.2 261.19"><defs><style>.cls-1{fill:#fff;}</style></defs><path class="cls-1" d="M620.8,220.39c-1.7.2-.7,1.5-1,2.4-1.5,1.4-3.1,2.8-4.9,4.5-2.2-.1-4.9,2.8-7.6.1a16,16,0,0,1-8.4-1.5l-5.8-5.8c-2.1-5.8-.8-11.5-1.3-17.1,2.6-3.1,6-4,9.9-4.7v17.5c1.4,1.3,2.6,2.4,3.9,3.7h2.9c.8-.8,1.6-1.6,2.5-2.6v-9.8c.1-4.7-1.3-9-3.2-13.2-4.1-9-8.5-17.8-12.8-26.6-1.1-2.3-1.4-4.8-2.1-7.1-1.2-3.9-.6-7.8-.9-11.6a13.44,13.44,0,0,1,2-8.4c1.1-.9,2.5-3.5,5.4-4.3,3.8-1.2,7.6.7,11.4.7a4.49,4.49,0,0,1,2.5,1.1c2.9,2.7,6.6,4.9,6.9,9.5,0,.1.5.2.8.4v8c-1.3,1.1-2.2,2.9-4.1,3s-3.7,2.3-6,.4V148l-3.3-3.3h-3l-2.5,2.5c0,2,.2,4.2,0,6.3-.7,6.4,1.5,12.2,4.2,17.7,4.1,8.3,8.7,16.2,12,24.9.9,2.4,2,4.6,1.9,7.2,0,.7,0,1.4,1,1.3C620.8,209.69,620.8,215.09,620.8,220.39Z"/><path class="cls-1" d="M362.8,48c-4.5,4.5-9.8,7.3-15.6,9.8-4.4,1.8-8.9,3.5-13.4,5.1a30,30,0,0,1-5.9,1.5c-2.9.5-5.9.6-8.7,2a1.7,1.7,0,0,1-1,0c-3.9-.6-7.7.9-11.6,1.2-3.5.3-7.2.1-10.6.9a25.69,25.69,0,0,1-9.1.7,85.61,85.61,0,0,1-15.8-2.7c-3.6-1-6.9-2-9.1-4.3-2-9.3-1.6-18.2-1.3-27.1a29,29,0,0,1,8.1-19.6c3.9-4.1,8.2-7.7,13.6-9.5,4.3-1.4,8.2-3.9,12.9-3.8,10.5-3.5,21.4-1.7,32.1-1.9,4-.1,8,1.3,12,2.2a32.4,32.4,0,0,1,10.5,4.8,22,22,0,0,1,9.7,14.3c1,5.3,2.3,10.7,1.9,16.1-.1,1.8,1.4,2.9,1.1,4.6C362.6,44.19,362.8,45.89,362.8,48Z"/><path class="cls-1" d="M537.8,128.69c2.9-1.3,5,.7,7.4.7,2.5,1.6,3.1,4.2,3.6,6.9,1.2,5.8,1.8,11.8,3.8,17.4.7,1.9-.3,4.2,1.2,6,.5,6,2.4,11.7,3.3,17.7.3-.2.4-.2.5-.3a.76.76,0,0,0,.2-.4v-45.9c3.1-1.7,5.6,2.2,8.2.3l1.8,1.8c-.4,29.4.4,58.8-.4,88.3,0,.2-.4.5-1,1a6,6,0,0,0-3.6-.9,5.69,5.69,0,0,1-5.9-4.5,70.87,70.87,0,0,1-2-8.6c-.3-2.2-1.5-4.3-1.2-6.6-2-2,0-5.2-2-7.2.5-2.5-1.7-4.6-1-7.1-2.1-4.1-1.6-8.9-3.9-13.8v45.6H539l-1.4-1.4C537.8,188.19,537.8,158.59,537.8,128.69Z"/><path class="cls-1" d="M198.1,210.39h-6.8l-1.5-1.5V124c0-1.6-.5-3.4,1.6-4.6,3.4,0,7,.1,10.7,0a9.08,9.08,0,0,0,4.2-.7c2-1,4.2.8,6.3,1.2a6.23,6.23,0,0,1,4.2,3.6c1.1,2.3,2.1,4.5,2,7.2-.2,9.2-.1,18.3-.1,27.5a10.69,10.69,0,0,1-2.9,7.8,16.4,16.4,0,0,1,3,9.7c-.2,11.1-.1,22.3-.1,33.6H210l-1.3-1.3v-34.8c-1-1.7-2.8-2-4.4-2.8-1.6.1-2.8,1.6-4.7,1v34.8C199.8,207.49,200.2,209.09,198.1,210.39Zm10.7-51.5v-28c-.8-.8-1.6-1.6-2.6-2.5-2,.5-4.5-1-6.4,1.6v31.7a.76.76,0,0,0,.2.4,1.38,1.38,0,0,0,.4.3c2.1.4,3.8-1.8,5.8-1C207.2,160.49,208,159.69,208.8,158.89Z"/><path class="cls-1" d="M75.5,134.59c2.1,5.1,1.3,10,1.3,14.9.1,19.1-.1,38.3.1,57.4.1,8-5.4,14.5-13.8,14.6-2.3,0-4.6,1.4-7.1.9-3.6-.8-6.9-2-8.6-5.8a7.06,7.06,0,0,1-.6-2.8c0-23.9-.1-47.9.1-71.8,0-4.1,2.3-7.5,6-9.6,2.2-1.3,4.4-2.4,7.2-2a7.41,7.41,0,0,0,3.2-.7c3.6-1.2,6.8.4,9.7,2.4A29.25,29.25,0,0,1,75.5,134.59Zm-19.7,8.3v63c0,2.3,0,4.5,1.5,6.1,1.7,2.1,3.9,1.3,6,1.5,1.2-1.2,2.3-2.4,3.5-3.6V141c-.8-.8-1.7-1.6-2.5-2.5C58.9,138.39,58.6,138.59,55.8,142.89Z"/><path class="cls-1" d="M97.2,126.49c2.1-.7,4.4.9,6.2-1.1a3.69,3.69,0,0,1,1.5,3.4c-.1,7.5-.1,15-.1,22.5v4.1c2.3-1.5,1.5-4,2.4-5.8a50.52,50.52,0,0,0,2.7-7.4c1.4-4.6,3.6-8.9,4.7-13.5a10.09,10.09,0,0,1,2.5-4.1h8.5c-2.1,5.4-3.6,11-5.7,16.4-1.4,3.7-2.8,7.5-4.1,11.3s-2.2,7.4-3.4,11.1a9.11,9.11,0,0,0,.1,6.5c2.7,8,5.6,16,8,24.1,1.6,5.3,3.2,10.7,5.1,15.9.5,1.4-.4,3.2,1.3,4.6-3.5-.2-6.4,2.1-9.8.8-4.6-11.2-7.3-23.2-12.1-34.6v35.7c-3.4,0-6.4,2.1-9.9,1-.5-1.1-.2-2.2-.2-3.3v-80.4C94.8,130.89,95,128.59,97.2,126.49Z"/><path class="cls-1" d="M454.4,211.29h-9.3l-1-1c-.5-.2-.4-.4-.1-.7a1.39,1.39,0,0,0,.7-1.2c-.4-6,1.8-11.7,2.2-17.6.3-4.4,1.4-8.7,2-13.1.3-2.2,0-4.8,1-6.5,1.2-2.2.2-4.2.9-6.2,1.6-4.6,1.3-9.6,2.8-14.3.8-2.3.7-5.1.9-7.6.5-5.4,2.4-10.6,2.3-16.1,0-1.7,1.5-3.2.8-5,6-.9,6-.9,10.1,3,.3,1.8-.1,3.7,1,5.6.9,1.6-.8,3.9,1.1,5.6.3.3.2,1.3,0,1.9-.6,3,1.4,5.6,1.1,8.6-.3,2.7.7,5.4,1.2,8,.6,3.9,1.4,7.8,1.7,11.7.1,1.8,1.4,3.2,1.2,5.1-.2,1.5-.8,3.3.9,4.6.2.2,0,1,0,1.5a14.17,14.17,0,0,0,.9,6.1c.7,1.7-.5,3.9,1.1,5.5a25.34,25.34,0,0,0,1,8.6c.9,3.8.5,7.9,1.9,11.7.4,1.1.1,2.6.1,4h-8.6l-2.1-2.1a2.92,2.92,0,0,1-.2-.9c-.4-2.5.5-5-.9-7.7-1-2,.6-4.8-1.1-7-.2-.2-.1-.7,0-1,.6-4.3-1.1-8.3-1.2-12.6a42.62,42.62,0,0,0-.9-8c-.7-2.7-.2-5.6-1-8.1-1.1-3.4-.6-6.7-.9-10.1l-1.4-1.4c-.2.3-.5.5-.5.8-.3,2.4.2,4.7-.9,7.1-.9,2.1.5,4.8-1.1,7-.1.1,0,.3,0,.5.6,4.1-.9,8-1.1,12.1-.3,5.2-1.3,10.4-2.1,15.6C455.9,202,455.7,206.69,454.4,211.29Z"/><path class="cls-1" d="M289.8,170.89c1.1.5.8,1.7,1.6,2.6,2.9-18.7,5.8-37.3,8.8-56l1-1h8.6c-.5,3-1,5.9-1.5,8.8-.1.4-.6.9-.5,1.3.7,3.6-1.1,7-1.2,10.6-.1,2.6-.2,5.6-1.3,7.9-1.3,2.6,1,5.7-1.5,7.9-.2.2,0,1,0,1.5a14.17,14.17,0,0,1-.9,6.1c-.7,1.7-.2,3.6-.9,5.6-.8,2.5-.8,5.4-1,8-.4,5.5-2.4,10.7-2.2,16.2-1.5,2-.4,4.5-1.1,6.5a22,22,0,0,0-.9,6.1c-.1,1.4-1.4,2.5-1,4.2h-5.3c-5.2-1.5-4.7-6.2-5.6-10-.5-2-.1-4.1-1-6.1-.7-1.7-.1-3.7-1-5.6-.9-2.1.5-4.8-1.2-7,.7-3.3-1.7-6.3-.9-9.6.4-1.8-1.3-2.9-1.1-4.6.2-1.5.5-3.3-.9-4.6.4-2.6-.9-5.1-.9-7.6.1-3.3-1.7-6.3-1.1-9.6-2-4.9-1.2-10.3-3-15.3.7-3.6-2-6.9-.7-10.7h7.4c.6.6,1.4,1.5,2.2,2.4.3,2.1-.2,4.3.9,6.5.9,1.9-.7,4.5,1.1,6.6.2.3,0,1,0,1.5a14.17,14.17,0,0,0,.9,6.1c.7,1.7.1,3.6,1,5.6s-.5,4.8,1.2,7c-.7,3.3,1.7,6.3.9,9.6-.4,1.8,1.4,2.9,1.1,4.6A33.79,33.79,0,0,0,289.8,170.89Z"/><path class="cls-1" d="M27.8,142.19v33a17.49,17.49,0,0,1-11.6,11.3c-1.4.1-4.1-.8-6.4,1.9V227l-1.3,1.3H1.2c-.6-.6-.3-1.9-1.2-2.3v-86.2c.5-.5.8-1,1.2-1.1a19.81,19.81,0,0,1,3.5-1.1c5.8-.8,11.6-1.8,17.9-.9C24,138.19,25.8,140.19,27.8,142.19Zm-17.9,4.5v30.4c2.6.9,4.7-.6,6.9-1.3,1.9-.6,1.7-2.9,2.6-4.3a4.7,4.7,0,0,0,.4-2.8v-18c-1-2.6-2-4.1-3.5-5.1C14,145,12,145.69,9.9,146.69Z"/><path class="cls-1" d="M171.8,122c-.2,3.5-3.9,5-5.6,8.2-1.4,0-2.9,1.4-4.9,1.3s-4,0-5.9,0l-1.4,1.4v27.4c4.7,1.5,9-1.4,13.7-.6.9,4-3.3,5.6-4.1,8.4-2.7,2.8-6.8,0-9.6,2.9v33.1c2.3-1.8,4.5-1.5,6.7-1.5,2.7,0,5.3-.1,8,.1,1.3.1,2-.9,3.2-1.1,1,0,1.1,1.1,1.7,1.3a18.12,18.12,0,0,1-6.2,8.5c-3.8.2-7.7,1.9-11.8,1.2-3.9-.7-7.6,1.4-11.6,1V125l2.4-2.4c2.6,0,5.4.6,7.9-.1,5.4-1.6,10.7-.5,16.1-.9A.91.91,0,0,1,171.8,122Z"/><path class="cls-1" d="M239.8,70.89c1.7-1.6,1.4-4.3,4.1-5.7-1.6,4-1,7.9-1.1,11.6,1.6,1.6,1.8,4,3.5,5.6a28.07,28.07,0,0,0,11.6,6.9c6.3,2,12.6,3.5,19.2,3,2.2-.1,4.3-.1,6.5,0,8.1.4,15.6-2.1,23.1-4.5,10.5-3.2,20.2-8.3,30.1-13,6.4-3,12.7-6.5,19.2-9.1,6-2.5,11.6-5.8,18-7.7-1.3-1-2.3-1-3.3-.1s-2.2.2-3.3.5c-1.2-1.7-2.1-3.5-1.4-5.8h13.3c1.5.9,3.5,1.6,4.5,4.1.5,3.7-2.5,6.3-5.5,8.4a83.59,83.59,0,0,1-13.4,7.5c-7.8,3.6-15.7,7.1-23.8,10.2-5.1,2-10.3,4.1-15.4,6.1s-10.1,4-15.3,5.2c-4.9,1.1-9.5,3.5-14.6,3.4-2.2,2.2-5.1.6-7.8,1.8-2.5,1.1-5.9.2-8.9.2-2.8,0-5.7.1-8.5,0-2.1-.1-3.9-1.2-6.1-1.1-1.8.1-3.5-.9-5.2-1.7s-3.9-1.1-5.7-1.9a23,23,0,0,1-5-2.4,25.1,25.1,0,0,1-8.6-10.2,4.92,4.92,0,0,1-.2-2.4Z"/><path class="cls-1" d="M363.9,51.59c-1.1,3,1.4,5.5.8,8.4l-5.1,2.4c-5.9,2.7-11.8,5.3-17.6,8-5.2,2.4-10.2,5.2-15.4,7.5a44.87,44.87,0,0,1-12.5,3.6c-4.9.7-9.8.3-14.6,1a37.1,37.1,0,0,1-8.1.8c-2.9-.2-5.7.5-8.6-.8-2.4-1-5.3-.2-8.1-.9a40.67,40.67,0,0,1-9.7-3.1,5.46,5.46,0,0,1-3.2-5.2c-.1-2.5,0-5,0-7.8,2,0,3.6,1,5.2,1.7a49.75,49.75,0,0,0,14.1,3.3c6.5-.1,13-.2,19.5.1,2.2.1,4.1-.7,6.1-1.1s3.9.8,5.6-.9c.3-.3,1.3-.1,1.9-.1,6.5-.4,12.6-2.2,18.9-3.7,7-1.6,13.4-4.7,19.9-7.4,3.1-1.3,5.9-3.6,8.7-5.4A2.08,2.08,0,0,1,363.9,51.59Z"/><path class="cls-1" d="M408,118.59c5.4-.2,5.4-.2,8.6,1.1,1.2,1.8,1.3,3.9,1.3,6v74.8a41.67,41.67,0,0,0,5,0c5.3-.6,10.3,1.3,15.9,1.1-.8,1.7-1.6,3.3-2.3,4.9a9.43,9.43,0,0,1-3.3,4.1c-2.6,0-5.4.5-7.9-.1-5.7-1.4-11.4-.6-17.2-1C408,179.09,408,149,408,118.59Z"/><path class="cls-1" d="M367,117.49h7.5L376,119v79.5c7.1-.9,13.9,1,21.2,1-1.6,3.4-2.7,6.6-6,8.7-7.7.7-15.8-.2-24.1-1.2C367,177.39,367,147.49,367,117.49Z"/><path class="cls-1" d="M331,116.39c3,.2,6-.6,8.3,1.1,2,3.8,1.6,7.5,1.6,11.2V206l-1.4,1.4h-7.3l-1.2-1.2Z"/><path class="cls-1" d="M502.2,125.39c2.7.2,5.6-.6,8.4,1.4v90c-2.5-2-5.1-1.2-7.5-1.4-.5-.8-1.5-1.1-1.4-2.1a20.85,20.85,0,0,0,0-2.5V128C501.8,127.19,501.5,126.29,502.2,125.39Z"/><path class="cls-1" d="M309.6,85.09a54,54,0,0,0-5.7,1.8c-3.2,1.5-6.6,1.6-9.9,2.5-7.1,1.8-14.4,1.4-21.5.9-6.3-.5-12.7-1.4-18.4-4.8a30.93,30.93,0,0,1-8.2-6.6c.3-1.9-1.3-3.5-1.1-5.6a26.55,26.55,0,0,0,.1-4.8c3-7.1,8.4-10.9,14-14.2,1.6.7.9,1.9.9,2.7.1,3.2.2,6.3,0,9.5-.2,3.6,2.1,6.9.9,10.1,3.6,4.8,8.6,5.7,13.6,6.8,10.1,2.2,20.3.6,30.5,1,1.6.1,3.3,0,4.9,0A1.48,1.48,0,0,0,309.6,85.09Z"/><path class="cls-1" d="M311.5,229.69c2.1,5.9,6.5,9.2,10.2,13.1a25.71,25.71,0,0,1,2.2,3.2v4.9a10,10,0,0,1-5.4,3.6c-2.7-.6-4.5-2.3-6.3-4.3-1.1,3.3,1.9,4.8,1.9,7.1,2.5,1.9,5.4,2.2,8.5,3.9H302c.8-2.5,2.8-1.6,4.4-1.9,2-2.2,4.7-4,4.4-7.7-1.5,0-1.8,1.6-3.1,1.9s-2.3,1-3.6.9-2-1.6-3.2-1.3c-1.5-1.8-2.5-3.5-2-5.5a9.8,9.8,0,0,1,3-4.8c3.2-3.2,6.7-6.2,8.5-10.5C310.6,231.79,310.8,231.19,311.5,229.69Z"/><path class="cls-1" d="M414.8,227.69c0,2.9-.6,5.7.1,8.2,1.8,6.4.3,12.7,1,19-1.3.5-.8,1.9-1.6,2.5h-9c-1.4-1.9-1.6-4-1.6-6.3.1-5.8,0-11.7,0-17.5,0-2.1-.2-4.2,1.3-5.9Zm-6.8,11.8v13.8c1.4.1,2.7.5,3.7-.2v-13.6Zm-.1-3.8c1.5-.6,2.7.1,3.9-.7,0-1.5.3-3.1-.3-4.8-1.2.5-2.4-.2-3.5.6C407.9,232.19,407.9,233.59,407.9,235.69Z"/><path class="cls-1" d="M377.3,227.49h10.6c-.2,9.6.3,19.2-.4,28.7,0,.4-.7.7-1.1,1.1h-9.2a11.52,11.52,0,0,1-1.4-5.5c.1-7,.1-13.9,0-20.9C375.8,229.59,375.8,228.29,377.3,227.49Zm2.7,3v23.1c1.4-.7,2.7.4,3.7-.6v-22.6C382.4,230.49,381.2,230.49,380,230.49Z"/><path class="cls-1" d="M229.9,242.49h4.6c-1.3,3.5-.4,7-.7,10.4l1.5,1.5c.5-1,1.7-.8,2.4-1.4v-13.5h-6.1c-1.3-.7-.1-2.5-1.9-2.3.8-3.4-1.1-6.8,1.4-9.7h9.4c.7.6.3,1.3.4,1.9.1.8-.7,1-1.2,1.9-1.5-1.4-3.4-.8-5.4-.9-.6,1.5-.2,3.1-.3,4.8h6.3a9.41,9.41,0,0,1,1.6,6c-.1,5,0,9.9,0,14.6l-1.4,1.4h-9.2C229.6,252.59,229.6,247.79,229.9,242.49Z"/><path class="cls-1" d="M219,254.19c2,.8,3.6-.1,5.2-1,.8,1.4,1.1,2.7-.2,3.5a13.11,13.11,0,0,1-4.8,1.7c-1.7.2-3.7.9-5-.9,1.1-5,.5-10,.5-14.9s1-9.8-1-14.8h10.9v3.4c-1.7,1.5-3-1.1-5.8-.4-1.5.6-1.2,2.5-.9,4.8,1.8-.4,3.8.7,5.6-1.2v6c-1.4-1.3-3-.7-4.6-.9C219,244.29,219,249.09,219,254.19Z"/><path class="cls-1" d="M363.9,239.19v14h6.2c1.2,1.1-.5,1.3-.4,2a13.33,13.33,0,0,1,0,2h-9v-20.4l1.4-1.4h4.4v-4.8a5,5,0,0,0-4.7.7v-3.7h7.5c.2.2.6.6,1.3,1.2a30.48,30.48,0,0,0,.1,5.2c.3,1.9-.7,3.4-1.3,5.2Z"/><path class="cls-1" d="M250.4,257.19c1.8-2.4,1.4-4.8,1.4-7.2a50.45,50.45,0,0,1,0-5.5c.5-4.7-1.2-9.3-1.2-13.9-1.4-.5-2.5-.6-3.4.8-1-1.2-.2-2.4-.6-3.4a1.36,1.36,0,0,1,1.3-.7c1.8,0,3.7-.1,5.5,0a6.16,6.16,0,0,0,4.4-1.2c2.4,1.3,2.1,3.1,1.7,5-1.7.5-2.6-1.8-4.2-.9-.9,5-.7,22.9.4,26.8A42.71,42.71,0,0,1,250.4,257.19Z"/><path class="cls-1" d="M394,227.49h3.8v25.8c0,1.3-.4,2.7,1.2,3.7-1.7.6-3.3.3-5.1.3C394,247.49,394,237.69,394,227.49Z"/><path class="cls-1" d="M269.6,253.59c-.2,3-.7,3.8-2.4,3.8s-2.2-.8-2.3-3.8Z"/></svg>