<?xml version="1.0" encoding="utf-8"?>
<!-- Generator: Adobe Illustrator 18.1.1, SVG Export Plug-In . SVG Version: 6.00 Build 0)  -->
<svg version="1.1" id="Layer_1" xmlns="http://www.w3.org/2000/svg" xmlns:xlink="http://www.w3.org/1999/xlink" x="0px" y="0px"
	 viewBox="0 0 780 450" enable-background="new 0 0 960 560" xml:space="preserve">
<g>
	<g>
		<path d="M693,316c-1.7,0.2-0.7,1.5-1,2.4c-1.5,1.4-3.1,2.8-4.9,4.5c-2.2-0.1-4.9,2.8-7.6,0.1c-2.8,0.3-5.4-0.2-8.4-1.5
			c-1.8-1.8-3.9-3.9-5.8-5.8c-2.1-5.8-0.8-11.5-1.3-17.1c2.6-3.1,6-4,9.9-4.7c0,6,0,11.8,0,17.5c1.4,1.3,2.6,2.4,3.9,3.7
			c0.8,0,1.8,0,2.9,0c0.8-0.8,1.6-1.6,2.5-2.6c0-3.2,0-6.5,0-9.8c0.1-4.7-1.3-9-3.2-13.2c-4.1-9-8.5-17.8-12.8-26.6
			c-1.1-2.3-1.4-4.8-2.1-7.1c-1.2-3.9-0.6-7.8-0.9-11.6c-0.2-2.6,0.1-5.1,2-8.4c1.1-0.9,2.5-3.5,5.4-4.3c3.8-1.2,7.6,0.7,11.4,0.7
			c1.1,0,2.1,0.8,2.5,1.1c2.9,2.7,6.6,4.9,6.9,9.5c0,0.1,0.5,0.2,0.8,0.4c0,2.7,0,5.3,0,8c-1.3,1.1-2.2,2.9-4.1,3
			c-2,0.1-3.7,2.3-6,0.4c0-3.6,0-7.4,0-11c-1.2-1.2-2.3-2.3-3.3-3.3c-1,0-2,0-3,0c-0.8,0.8-1.6,1.6-2.5,2.5c0,2,0.2,4.2,0,6.3
			c-0.7,6.4,1.5,12.2,4.2,17.7c4.1,8.3,8.7,16.2,12,24.9c0.9,2.4,2,4.6,1.9,7.2c0,0.7,0,1.4,1,1.3C693,305.3,693,310.7,693,316z"/>
		<path d="M435,143.6c-4.5,4.5-9.8,7.3-15.6,9.8c-4.4,1.8-8.9,3.5-13.4,5.1c-1.9,0.7-3.9,1.2-5.9,1.5c-2.9,0.5-5.9,0.6-8.7,2
			c-0.3,0.1-0.7,0.1-1,0c-3.9-0.6-7.7,0.9-11.6,1.2c-3.5,0.3-7.2,0.1-10.6,0.9c-3.1,0.8-6.1,1-9.1,0.7c-5.3-0.5-10.6-1.2-15.8-2.7
			c-3.6-1-6.9-2-9.1-4.3c-2-9.3-1.6-18.2-1.3-27.1c0.3-7.4,2.8-14.1,8.1-19.6c3.9-4.1,8.2-7.7,13.6-9.5c4.3-1.4,8.2-3.9,12.9-3.8
			c10.5-3.5,21.4-1.7,32.1-1.9c4-0.1,8,1.3,12,2.2c3.8,0.9,7.4,2.7,10.5,4.8c5,3.3,8.5,8.2,9.7,14.3c1,5.3,2.3,10.7,1.9,16.1
			c-0.1,1.8,1.4,2.9,1.1,4.6C434.8,139.8,435,141.5,435,143.6z"/>
		<path d="M610,224.3c2.9-1.3,5,0.7,7.4,0.7c2.5,1.6,3.1,4.2,3.6,6.9c1.2,5.8,1.8,11.8,3.8,17.4c0.7,1.9-0.3,4.2,1.2,6
			c0.5,6,2.4,11.7,3.3,17.7c0.3-0.2,0.4-0.2,0.5-0.3c0.1-0.1,0.2-0.3,0.2-0.4c0-15.3,0-30.6,0-45.9c3.1-1.7,5.6,2.2,8.2,0.3
			c0.8,0.8,1.3,1.3,1.8,1.8c-0.4,29.4,0.4,58.8-0.4,88.3c0,0.2-0.4,0.5-1,1c-1-0.7-2.2-0.9-3.6-0.9c-3.1,0.1-5.3-1.9-5.9-4.5
			c-0.7-2.9-1.7-5.8-2-8.6c-0.3-2.2-1.5-4.3-1.2-6.6c-2-2,0-5.2-2-7.2c0.5-2.5-1.7-4.6-1-7.1c-2.1-4.1-1.6-8.9-3.9-13.8
			c0,15.7,0,30.6,0,45.6c-2.8,0-5.3,0-7.8,0c-0.4-0.4-0.9-0.9-1.4-1.4C610,283.8,610,254.2,610,224.3z"/>
		<path d="M270.3,306c-2.2,0-4.5,0-6.8,0c-0.5-0.5-1-1-1.5-1.5c0-28.3,0-56.6,0-84.9c0-1.6-0.5-3.4,1.6-4.6c3.4,0,7,0.1,10.7,0
			c1.4,0,2.7,0,4.2-0.7c2-1,4.2,0.8,6.3,1.2c1.8,0.4,3.3,1.7,4.2,3.6c1.1,2.3,2.1,4.5,2,7.2c-0.2,9.2-0.1,18.3-0.1,27.5
			c0,3-0.8,5.6-2.9,7.8c2,2.9,3,6,3,9.7c-0.2,11.1-0.1,22.3-0.1,33.6c-2.9,0-5.7,0-8.7,0c-0.3-0.3-0.8-0.8-1.3-1.3
			c0-11.6,0-23.3,0-34.8c-1-1.7-2.8-2-4.4-2.8c-1.6,0.1-2.8,1.6-4.7,1c0,11.9,0,23.4,0,34.8C272,303.1,272.4,304.7,270.3,306z
			 M281,254.5c0-9.4,0-18.7,0-28c-0.8-0.8-1.6-1.6-2.6-2.5c-2,0.5-4.5-1-6.4,1.6c0,10.4,0,21,0,31.7c0,0.1,0.1,0.3,0.2,0.4
			c0.1,0.1,0.2,0.2,0.4,0.3c2.1,0.4,3.8-1.8,5.8-1C279.4,256.1,280.2,255.3,281,254.5z"/>
		<path d="M147.7,230.2c2.1,5.1,1.3,10,1.3,14.9c0.1,19.1-0.1,38.3,0.1,57.4c0.1,8-5.4,14.5-13.8,14.6c-2.3,0-4.6,1.4-7.1,0.9
			c-3.6-0.8-6.9-2-8.6-5.8c-0.4-1-0.6-1.8-0.6-2.8c0-23.9-0.1-47.9,0.1-71.8c0-4.1,2.3-7.5,6-9.6c2.2-1.3,4.4-2.4,7.2-2
			c1.1,0.1,2.1-0.3,3.2-0.7c3.6-1.2,6.8,0.4,9.7,2.4C146.2,228.5,147.1,229.6,147.7,230.2z M128,238.5c0,21,0,42,0,63
			c0,2.3,0,4.5,1.5,6.1c1.7,2.1,3.9,1.3,6,1.5c1.2-1.2,2.3-2.4,3.5-3.6c0-22.9,0-45.9,0-68.9c-0.8-0.8-1.7-1.6-2.5-2.5
			C131.1,234,130.8,234.2,128,238.5z"/>
		<path d="M169.4,222.1c2.1-0.7,4.4,0.9,6.2-1.1c1.1,0.9,1.6,1.9,1.5,3.4c-0.1,7.5-0.1,15-0.1,22.5c0,1.3,0,2.6,0,4.1
			c2.3-1.5,1.5-4,2.4-5.8c1.2-2.4,1.9-4.9,2.7-7.4c1.4-4.6,3.6-8.9,4.7-13.5c0.5-1.8,1.4-2.8,2.5-4.1c2.7,0,5.5,0,8.5,0
			c-2.1,5.4-3.6,11-5.7,16.4c-1.4,3.7-2.8,7.5-4.1,11.3c-1.3,3.7-2.2,7.4-3.4,11.1c-0.8,2.2-0.7,4.2,0.1,6.5c2.7,8,5.6,16,8,24.1
			c1.6,5.3,3.2,10.7,5.1,15.9c0.5,1.4-0.4,3.2,1.3,4.6c-3.5-0.2-6.4,2.1-9.8,0.8c-4.6-11.2-7.3-23.2-12.1-34.6c0,11.8,0,23.5,0,35.7
			c-3.4,0-6.4,2.1-9.9,1c-0.5-1.1-0.2-2.2-0.2-3.3c0-26.8,0-53.6,0-80.4C167,226.5,167.2,224.2,169.4,222.1z"/>
		<path d="M526.6,306.9c-2.9,0-6.1,0-9.3,0c-0.3-0.3-0.6-0.6-1-1c-0.5-0.2-0.4-0.4-0.1-0.7c0.4-0.3,0.7-0.6,0.7-1.2
			c-0.4-6,1.8-11.7,2.2-17.6c0.3-4.4,1.4-8.7,2-13.1c0.3-2.2,0-4.8,1-6.5c1.2-2.2,0.2-4.2,0.9-6.2c1.6-4.6,1.3-9.6,2.8-14.3
			c0.8-2.3,0.7-5.1,0.9-7.6c0.5-5.4,2.4-10.6,2.3-16.1c0-1.7,1.5-3.2,0.8-5c6-0.9,6-0.9,10.1,3c0.3,1.8-0.1,3.7,1,5.6
			c0.9,1.6-0.8,3.9,1.1,5.6c0.3,0.3,0.2,1.3,0,1.9c-0.6,3,1.4,5.6,1.1,8.6c-0.3,2.7,0.7,5.4,1.2,8c0.6,3.9,1.4,7.8,1.7,11.7
			c0.1,1.8,1.4,3.2,1.2,5.1c-0.2,1.5-0.8,3.3,0.9,4.6c0.2,0.2,0,1,0,1.5c0,2.1,0,4.1,0.9,6.1c0.7,1.7-0.5,3.9,1.1,5.5
			c-0.3,2.9,0.3,5.7,1,8.6c0.9,3.8,0.5,7.9,1.9,11.7c0.4,1.1,0.1,2.6,0.1,4c-3.1,0-5.8,0-8.6,0c-0.7-0.7-1.4-1.4-2.1-2.1
			c-0.1-0.3-0.2-0.6-0.2-0.9c-0.4-2.5,0.5-5-0.9-7.7c-1-2,0.6-4.8-1.1-7c-0.2-0.2-0.1-0.7,0-1c0.6-4.3-1.1-8.3-1.2-12.6
			c-0.1-2.6-0.3-5.5-0.9-8c-0.7-2.7-0.2-5.6-1-8.1c-1.1-3.4-0.6-6.7-0.9-10.1c-0.5-0.5-1-1-1.4-1.4c-0.2,0.3-0.5,0.5-0.5,0.8
			c-0.3,2.4,0.2,4.7-0.9,7.1c-0.9,2.1,0.5,4.8-1.1,7c-0.1,0.1,0,0.3,0,0.5c0.6,4.1-0.9,8-1.1,12.1c-0.3,5.2-1.3,10.4-2.1,15.6
			C528.1,297.6,527.9,302.3,526.6,306.9z"/>
		<path d="M362,266.5c1.1,0.5,0.8,1.7,1.6,2.6c2.9-18.7,5.8-37.3,8.8-56c0.2-0.2,0.6-0.6,1-1c2.7,0,5.5,0,8.6,0
			c-0.5,3-1,5.9-1.5,8.8c-0.1,0.4-0.6,0.9-0.5,1.3c0.7,3.6-1.1,7-1.2,10.6c-0.1,2.6-0.2,5.6-1.3,7.9c-1.3,2.6,1,5.7-1.5,7.9
			c-0.2,0.2,0,1,0,1.5c0,2.1,0,4.1-0.9,6.1c-0.7,1.7-0.2,3.6-0.9,5.6c-0.8,2.5-0.8,5.4-1,8c-0.4,5.5-2.4,10.7-2.2,16.2
			c-1.5,2-0.4,4.5-1.1,6.5c-0.7,2.1-0.8,4.1-0.9,6.1c-0.1,1.4-1.4,2.5-1,4.2c-1.9,0-3.7,0-5.3,0c-5.2-1.5-4.7-6.2-5.6-10
			c-0.5-2-0.1-4.1-1-6.1c-0.7-1.7-0.1-3.7-1-5.6c-0.9-2.1,0.5-4.8-1.2-7c0.7-3.3-1.7-6.3-0.9-9.6c0.4-1.8-1.3-2.9-1.1-4.6
			c0.2-1.5,0.5-3.3-0.9-4.6c0.4-2.6-0.9-5.1-0.9-7.6c0.1-3.3-1.7-6.3-1.1-9.6c-2-4.9-1.2-10.3-3-15.3c0.7-3.6-2-6.9-0.7-10.7
			c2.2,0,4.7,0,7.4,0c0.6,0.6,1.4,1.5,2.2,2.4c0.3,2.1-0.2,4.3,0.9,6.5c0.9,1.9-0.7,4.5,1.1,6.6c0.2,0.3,0,1,0,1.5
			c0,2.1,0,4.1,0.9,6.1c0.7,1.7,0.1,3.6,1,5.6c0.9,2.1-0.5,4.8,1.2,7c-0.7,3.3,1.7,6.3,0.9,9.6c-0.4,1.8,1.4,2.9,1.1,4.6
			C361.8,263.5,362,265,362,266.5z"/>
		<path d="M100,237.8c0,11,0,22.4,0,33c-2.1,5.6-5.5,9.2-11.6,11.3c-1.4,0.1-4.1-0.8-6.4,1.9c0,12.5,0,25.6,0,38.6
			c-0.5,0.5-0.9,0.9-1.3,1.3c-2.3,0-4.8,0-7.3,0c-0.6-0.6-0.3-1.9-1.2-2.3c0-28.8,0-57.5,0-86.2c0.5-0.5,0.8-1,1.2-1.1
			c1.2-0.4,2.5-1,3.5-1.1c5.8-0.8,11.6-1.8,17.9-0.9C96.2,233.8,98,235.8,100,237.8z M82.1,242.3c0,10.3,0,20.4,0,30.4
			c2.6,0.9,4.7-0.6,6.9-1.3c1.9-0.6,1.7-2.9,2.6-4.3c0.6-1,0.4-1.9,0.4-2.8c0-6.3,0-12.6,0-18c-1-2.6-2-4.1-3.5-5.1
			C86.2,240.6,84.2,241.3,82.1,242.3z"/>
		<path d="M244,217.6c-0.2,3.5-3.9,5-5.6,8.2c-1.4,0-2.9,1.4-4.9,1.3c-2-0.1-4,0-5.9,0c-0.5,0.5-1,1-1.4,1.4c0,9.2,0,18.3,0,27.4
			c4.7,1.5,9-1.4,13.7-0.6c0.9,4-3.3,5.6-4.1,8.4c-2.7,2.8-6.8,0-9.6,2.9c0,10.7,0,21.6,0,33.1c2.3-1.8,4.5-1.5,6.7-1.5
			c2.7,0,5.3-0.1,8,0.1c1.3,0.1,2-0.9,3.2-1.1c1,0,1.1,1.1,1.7,1.3c-1.2,3.5-3.3,6.2-6.2,8.5c-3.8,0.2-7.7,1.9-11.8,1.2
			c-3.9-0.7-7.6,1.4-11.6,1c0-29.6,0-59,0-88.6c0.7-0.7,1.5-1.5,2.4-2.4c2.6,0,5.4,0.6,7.9-0.1c5.4-1.6,10.7-0.5,16.1-0.9
			C243,217,243.5,216.8,244,217.6z"/>
		<path d="M312,166.5c1.7-1.6,1.4-4.3,4.1-5.7c-1.6,4-1,7.9-1.1,11.6c1.6,1.6,1.8,4,3.5,5.6c3.3,3.3,7.2,5.5,11.6,6.9
			c6.3,2,12.6,3.5,19.2,3c2.2-0.1,4.3-0.1,6.5,0c8.1,0.4,15.6-2.1,23.1-4.5c10.5-3.2,20.2-8.3,30.1-13c6.4-3,12.7-6.5,19.2-9.1
			c6-2.5,11.6-5.8,18-7.7c-1.3-1-2.3-1-3.3-0.1c-1,1-2.2,0.2-3.3,0.5c-1.2-1.7-2.1-3.5-1.4-5.8c4.4,0,8.8,0,13.3,0
			c1.5,0.9,3.5,1.6,4.5,4.1c0.5,3.7-2.5,6.3-5.5,8.4c-4.2,2.9-8.7,5.4-13.4,7.5c-7.8,3.6-15.7,7.1-23.8,10.2
			c-5.1,2-10.3,4.1-15.4,6.1c-5,1.9-10.1,4-15.3,5.2c-4.9,1.1-9.5,3.5-14.6,3.4c-2.2,2.2-5.1,0.6-7.8,1.8c-2.5,1.1-5.9,0.2-8.9,0.2
			c-2.8,0-5.7,0.1-8.5,0c-2.1-0.1-3.9-1.2-6.1-1.1c-1.8,0.1-3.5-0.9-5.2-1.7c-1.8-0.9-3.9-1.1-5.7-1.9c-1.7-0.7-3.5-1.3-5-2.4
			c-3.7-2.6-6.7-6-8.6-10.2c-0.4-0.8-0.2-1.6-0.2-2.4C312,172.4,312,169.4,312,166.5z"/>
		<path d="M436.1,147.2c-1.1,3,1.4,5.5,0.8,8.4c-1.7,0.8-3.4,1.6-5.1,2.4c-5.9,2.7-11.8,5.3-17.6,8c-5.2,2.4-10.2,5.2-15.4,7.5
			c-4,1.8-8.1,3-12.5,3.6c-4.9,0.7-9.8,0.3-14.6,1c-2.7,0.4-5.4,1-8.1,0.8c-2.9-0.2-5.7,0.5-8.6-0.8c-2.4-1-5.3-0.2-8.1-0.9
			c-3.4-0.8-6.6-1.5-9.7-3.1c-2.4-1.2-3.1-3-3.2-5.2c-0.1-2.5,0-5,0-7.8c2,0,3.6,1,5.2,1.7c3.9,1.7,11.3,3.3,14.1,3.3
			c6.5-0.1,13-0.2,19.5,0.1c2.2,0.1,4.1-0.7,6.1-1.1c1.9-0.4,3.9,0.8,5.6-0.9c0.3-0.3,1.3-0.1,1.9-0.1c6.5-0.4,12.6-2.2,18.9-3.7
			c7-1.6,13.4-4.7,19.9-7.4c3.1-1.3,5.9-3.6,8.7-5.4C434.4,147.2,434.8,146.9,436.1,147.2z"/>
		<path d="M480.2,214.2c5.4-0.2,5.4-0.2,8.6,1.1c1.2,1.8,1.3,3.9,1.3,6c0,23.2,0,46.3,0,69.5c0,1.6,0,3.3,0,5.3c1.8,0,3.4,0.2,5,0
			c5.3-0.6,10.3,1.3,15.9,1.1c-0.8,1.7-1.6,3.3-2.3,4.9c-0.7,1.7-1.8,3-3.3,4.1c-2.6,0-5.4,0.5-7.9-0.1c-5.7-1.4-11.4-0.6-17.2-1
			C480.2,274.7,480.2,244.6,480.2,214.2z"/>
		<path d="M439.2,213.1c2.5,0,5,0,7.5,0c0.4,0.4,0.9,0.9,1.5,1.5c0,26.3,0,52.7,0,79.5c7.1-0.9,13.9,1,21.2,1
			c-1.6,3.4-2.7,6.6-6,8.7c-7.7,0.7-15.8-0.2-24.1-1.2C439.2,273,439.2,243.1,439.2,213.1z"/>
		<path d="M403.2,212c3,0.2,6-0.6,8.3,1.1c2,3.8,1.6,7.5,1.6,11.2c0,24.2,0,48.3,0,72.5c0,1.6,0,3.3,0,4.8c-0.5,0.5-0.9,0.9-1.4,1.4
			c-2.3,0-4.8,0-7.3,0c-0.3-0.3-0.7-0.7-1.2-1.2C403.2,272.1,403.2,242.3,403.2,212z"/>
		<path d="M574.4,221c2.7,0.2,5.6-0.6,8.4,1.4c0,29.7,0,59.5,0,90c-2.5-2-5.1-1.2-7.5-1.4c-0.5-0.8-1.5-1.1-1.4-2.1
			c0.1-0.8,0-1.7,0-2.5c0-27.6,0-55.2,0-82.8C574,222.8,573.7,221.9,574.4,221z"/>
		<path d="M381.8,180.7c-1.9,0.6-3.9,1-5.7,1.8c-3.2,1.5-6.6,1.6-9.9,2.5c-7.1,1.8-14.4,1.4-21.5,0.9c-6.3-0.5-12.7-1.4-18.4-4.8
			c-3.1-1.8-5.9-3.9-8.2-6.6c0.3-1.9-1.3-3.5-1.1-5.6c0.3-1.8,0.1-3.6,0.1-4.8c3-7.1,8.4-10.9,14-14.2c1.6,0.7,0.9,1.9,0.9,2.7
			c0.1,3.2,0.2,6.3,0,9.5c-0.2,3.6,2.1,6.9,0.9,10.1c3.6,4.8,8.6,5.7,13.6,6.8c10.1,2.2,20.3,0.6,30.5,1c1.6,0.1,3.3,0,4.9,0
			C381.8,180.2,381.8,180.4,381.8,180.7z"/>
		<path d="M383.7,325.3c2.1,5.9,6.5,9.2,10.2,13.1c0.9,0.9,1.4,2.1,2.2,3.2c0,1.6,0,3.3,0,4.9c-1.4,1.8-3.2,3-5.4,3.6
			c-2.7-0.6-4.5-2.3-6.3-4.3c-1.1,3.3,1.9,4.8,1.9,7.1c2.5,1.9,5.4,2.2,8.5,3.9c-7.5,0-14,0-20.6,0c0.8-2.5,2.8-1.6,4.4-1.9
			c2-2.2,4.7-4,4.4-7.7c-1.5,0-1.8,1.6-3.1,1.9c-1.2,0.3-2.3,1-3.6,0.9c-1.4-0.1-2-1.6-3.2-1.3c-1.5-1.8-2.5-3.5-2-5.5
			c0.4-1.9,1.6-3.4,3-4.8c3.2-3.2,6.7-6.2,8.5-10.5C382.8,327.4,383,326.8,383.7,325.3z"/>
		<path d="M487,323.3c0,2.9-0.6,5.7,0.1,8.2c1.8,6.4,0.3,12.7,1,19c-1.3,0.5-0.8,1.9-1.6,2.5c-3,0-6,0-9,0c-1.4-1.9-1.6-4-1.6-6.3
			c0.1-5.8,0-11.7,0-17.5c0-2.1-0.2-4.2,1.3-5.9C480.5,323.3,483.8,323.3,487,323.3z M480.2,335.1c0,4.8,0,9.3,0,13.8
			c1.4,0.1,2.7,0.5,3.7-0.2c0-4.6,0-9,0-13.6C482.6,335.1,481.5,335.1,480.2,335.1z M480.1,331.3c1.5-0.6,2.7,0.1,3.9-0.7
			c0-1.5,0.3-3.1-0.3-4.8c-1.2,0.5-2.4-0.2-3.5,0.6C480.1,327.8,480.1,329.2,480.1,331.3z"/>
		<path d="M449.5,323.1c3.3,0,6.8,0,10.6,0c-0.2,9.6,0.3,19.2-0.4,28.7c0,0.4-0.7,0.7-1.1,1.1c-3,0-6.1,0-9.2,0
			c-0.8-1.8-1.5-3.4-1.4-5.5c0.1-7,0.1-13.9,0-20.9C448,325.2,448,323.9,449.5,323.1z M452.2,326.1c0,7.9,0,15.3,0,23.1
			c1.4-0.7,2.7,0.4,3.7-0.6c0-7.6,0-15.1,0-22.6C454.6,326.1,453.4,326.1,452.2,326.1z"/>
		<path d="M302.1,338.1c1.7,0,3.1,0,4.6,0c-1.3,3.5-0.4,7-0.7,10.4c0.6,0.6,1,1,1.5,1.5c0.5-1,1.7-0.8,2.4-1.4c0-4.4,0-8.9,0-13.5
			c-2.2,0-4.3,0-6.1,0c-1.3-0.7-0.1-2.5-1.9-2.3c0.8-3.4-1.1-6.8,1.4-9.7c3.3,0,6.4,0,9.4,0c0.7,0.6,0.3,1.3,0.4,1.9
			c0.1,0.8-0.7,1-1.2,1.9c-1.5-1.4-3.4-0.8-5.4-0.9c-0.6,1.5-0.2,3.1-0.3,4.8c2.2,0,4.3,0,6.3,0c1.3,1.9,1.7,3.9,1.6,6
			c-0.1,5,0,9.9,0,14.6c-0.6,0.6-0.9,0.9-1.4,1.4c-3,0-6.1,0-9.2,0C301.8,348.2,301.8,343.4,302.1,338.1z"/>
		<path d="M291.2,349.8c2,0.8,3.6-0.1,5.2-1c0.8,1.4,1.1,2.7-0.2,3.5c-1.4,0.8-3.1,1.5-4.8,1.7c-1.7,0.2-3.7,0.9-5-0.9
			c1.1-5,0.5-10,0.5-14.9c-0.1-4.8,1-9.8-1-14.8c3.6,0,7.2,0,10.9,0c0,1,0,2.2,0,3.4c-1.7,1.5-3-1.1-5.8-0.4
			c-1.5,0.6-1.2,2.5-0.9,4.8c1.8-0.4,3.8,0.7,5.6-1.2c0,2.1,0,4,0,6c-1.4-1.3-3-0.7-4.6-0.9C291.2,339.9,291.2,344.7,291.2,349.8z"
			/>
		<path d="M436.1,334.8c0,5,0,9.4,0,14c2.2,0,4.3,0,6.2,0c1.2,1.1-0.5,1.3-0.4,2c0.1,0.6,0,1.3,0,2c-3,0-5.8,0-9,0
			c0-3.4,0-6.8,0-10.2c0-3.5,0-6.9,0-10.2c0.6-0.6,0.9-0.9,1.4-1.4c1.3,0,2.7,0,4.4,0c0-1.7,0-3.3,0-4.8c-1.7-0.5-3.1-0.4-4.7,0.7
			c0-1.3,0-2.4,0-3.7c2.3,0,4.7,0,7.5,0c0.2,0.2,0.6,0.6,1.3,1.2c0,1.6-0.2,3.4,0.1,5.2c0.3,1.9-0.7,3.4-1.3,5.2
			C440.1,334.8,438.3,334.8,436.1,334.8z"/>
		<path d="M322.6,352.8c1.8-2.4,1.4-4.8,1.4-7.2c0-1.8-0.2-3.7,0-5.5c0.5-4.7-1.2-9.3-1.2-13.9c-1.4-0.5-2.5-0.6-3.4,0.8
			c-1-1.2-0.2-2.4-0.6-3.4c0.4-0.6,0.8-0.7,1.3-0.7c1.8,0,3.7-0.1,5.5,0c1.7,0.2,3.1-0.3,4.4-1.2c2.4,1.3,2.1,3.1,1.7,5
			c-1.7,0.5-2.6-1.8-4.2-0.9c-0.9,5-0.7,22.9,0.4,26.8C326.3,352.8,324.7,352.8,322.6,352.8z"/>
		<path d="M466.2,323.1c1.3,0,2.4,0,3.8,0c0,8.6,0,17.2,0,25.8c0,1.3-0.4,2.7,1.2,3.7c-1.7,0.6-3.3,0.3-5.1,0.3
			C466.2,343.1,466.2,333.3,466.2,323.1z"/>
		<path d="M341.8,349.2c-0.2,3-0.7,3.8-2.4,3.8c-1.7,0-2.2-0.8-2.3-3.8C338.7,349.2,340.3,349.2,341.8,349.2z"/>
	</g>
</g>
</svg>
