<?xml version="1.0" standalone="no"?>
<!DOCTYPE svg PUBLIC "-//W3C//DTD SVG 20010904//EN"
 "http://www.w3.org/TR/2001/REC-SVG-20010904/DTD/svg10.dtd">
<svg version="1.0" xmlns="http://www.w3.org/2000/svg"
 width="147.000000pt" height="147.000000pt" viewBox="0 0 147.000000 147.000000"
 preserveAspectRatio="xMidYMid meet">
<metadata>
Created by potrace 1.11, written by Peter Selinger 2001-2013
</metadata>
<g transform="translate(0.000000,147.000000) scale(0.100000,-0.100000)"
fill="#000000" stroke="none">
<path d="M737 1234 c-1 -1 -33 -4 -72 -8 -110 -10 -247 -54 -299 -96 -67 -54
-116 -131 -131 -205 -8 -41 -8 -235 0 -278 10 -53 21 -60 155 -94 60 -16 305
-3 435 23 11 2 34 7 50 9 55 10 196 56 231 75 19 11 34 16 34 12 0 -4 4 -2 8
4 4 6 22 19 39 28 52 26 65 54 58 122 -3 33 -7 73 -9 89 -21 226 -135 308
-439 319 -32 1 -59 1 -60 0z"/>
<path d="M1220 709 c-55 -46 -230 -118 -322 -134 -18 -3 -40 -8 -48 -10 -8 -2
-40 -7 -70 -10 -30 -4 -75 -10 -99 -15 -25 -4 -106 -7 -180 -6 -113 2 -146 7
-194 25 -32 13 -60 21 -62 19 -5 -5 -7 -30 -6 -64 3 -85 102 -116 341 -110 85
3 169 7 185 10 17 4 44 9 60 13 34 7 158 64 163 76 2 4 8 7 14 7 5 0 51 20
101 44 51 24 109 51 130 60 38 15 39 17 33 58 -3 24 -5 46 -5 51 -1 12 -15 7
-41 -14z"/>
<path d="M1285 710 c-1 -3 -2 -16 -1 -30 1 -22 6 -25 38 -24 42 0 42 -10 1
-21 -15 -3 -77 -31 -138 -60 -111 -54 -167 -78 -174 -75 -2 1 -7 -2 -10 -7
-11 -15 -212 -108 -258 -119 -16 -4 -32 -10 -38 -14 -10 -7 -69 -24 -90 -25
-5 0 -15 -4 -21 -7 -28 -18 -188 -26 -274 -14 -37 5 -75 13 -75 16 0 1 -12 3
-26 5 -28 4 -85 33 -119 62 -48 40 -66 121 -40 175 l11 23 -20 -23 c-23 -26
-40 -83 -37 -122 5 -55 70 -135 131 -159 6 -2 21 -8 35 -14 27 -11 26 -11 90
-26 62 -14 272 -7 342 12 31 9 67 18 80 21 12 2 34 9 48 14 14 5 28 10 32 11
22 4 132 44 243 88 305 120 445 203 445 266 0 17 -25 40 -49 45 -29 6 -122 8
-126 2z"/>
<path d="M173 666 c-48 -34 -81 -69 -93 -100 -16 -43 -12 -95 11 -127 23 -32
88 -73 134 -84 17 -4 39 -9 50 -12 91 -22 265 -16 343 11 23 8 42 13 42 10 0
-2 14 2 30 11 17 9 30 17 30 18 0 1 -30 0 -66 -3 -84 -7 -195 -5 -259 4 -27 5
-50 6 -51 4 0 -1 -8 3 -17 11 -10 7 -17 11 -17 7 0 -10 -55 21 -71 40 -9 11
-14 43 -15 88 -2 165 0 159 -51 122z"/>
</g>
</svg>
